<svg xmlns="http://www.w3.org/2000/svg" preserveAspectRatio="xMinYMin meet" height="400" width="400" viewport="0 0 400 400" viewBox="126.56556094680889 83.62595972027182 0.00788622222222557 0.018324618848327392">
    <g>
      <path d="M126.57327644444446,83.62649547328812 126.57314844444446,83.62657780791614 126.57305600000001,83.62661309414473 126.57260088888889,83.6269071451029 126.57248711111112,83.62694243110428 126.57249422222223,83.62693066910654 126.57237333333335,83.62703652698897 126.57206044444446,83.62717767049145 126.57198222222223,83.6272600040214 126.57143466666668,83.62765990785303 126.5713991111111,83.62771871697633 126.57138488888889,83.62780104963541 126.571392,83.62782457322791 126.57147022222223,83.62784809680966 126.57159111111112,83.62797747631568 126.57174044444446,83.62808333203176 126.57188977777777,83.62821271094282 126.57204622222223,83.62838913620327 126.57219555555557,83.62873022331468 126.57223822222223,83.62888312369527 126.57226666666668,83.6290360236188 126.57248,83.62927125337802 126.57255111111111,83.62937710641675 126.57260088888889,83.62950648205546 126.572608,83.62963585736699 126.57259377777777,83.62970642558082 126.57260088888889,83.63005926518963 126.57259377777777,83.63027096778669 126.57263644444446,83.63057675888007 126.57264355555557,83.63128242365737 126.57270044444445,83.63250555287807 126.572672,83.63263492060463 126.57269333333335,83.63288189444684 126.57267911111111,83.63308182477911 126.57271466666668,83.63388153829422 126.57271466666668,83.6343166712784 126.57272888888889,83.63452835625674 126.57271466666668,83.63463419841742 126.572736,83.63481060153191 126.572736,83.63491644310861 126.57277155555556,83.63505756487021 126.57280711111112,83.6356220480236 126.57271466666668,83.63589252732723 126.57256533333334,83.63621004468493 126.57253688888889,83.63633940304342 126.57252266666669,83.63656283943763 126.57252266666669,83.63670395665747 126.57253688888889,83.63678627485595 126.57253688888889,83.6370802673406 126.572416,83.6376564877095 126.572352,83.63802103193787 126.57233066666669,83.63820918278128 126.57226666666668,83.63856196374753 126.57224533333334,83.63872659403258 126.57238755555557,83.63877363115957 126.57240888888889,83.63879714970685 126.57255822222223,83.63903233458494 126.572864,83.63938510987484 126.57320533333335,83.6398437141149 126.57344711111112,83.64024351958527 126.57354666666666,83.64043166225488 126.57367466666666,83.64061980423259 126.57376711111111,83.64079618670829 126.57393777777777,83.64104312115265 126.57405155555557,83.64131357179552 126.57407288888889,83.641395882577 126.57408000000001,83.64156050374258 126.57405155555557,83.64172512437844 126.57391644444445,83.64212491514596 126.57377422222223,83.6424659106847 126.57357511111111,83.64303031209943 126.57356088888889,83.64311262011884 126.57356088888889,83.64324196102467 126.57358933333335,83.64338305982173 126.57367466666666,83.64355943277087 126.57376000000001,83.64362998178024 126.57374577777777,83.64366525624844 126.57366755555557,83.64375932137811 126.57345422222222,83.64382987011187 126.57255111111111,83.64358294911813 126.57221688888889,83.64341833446022 126.571968,83.643347785159 126.57189688888889,83.64328899400032 126.57187555555556,83.64317141148024 126.57184,83.64310086183848 126.57161955555557,83.64297152057591 126.57155555555556,83.64292448730849 126.57141333333334,83.64266580356454 126.57123555555556,83.64250118595557 126.57108622222222,83.64245415225571 126.57096533333333,83.64234832627292 126.57083022222223,83.64227777549613 126.57071644444446,83.64210139812845 126.57063111111111,83.64203084701111 126.570176,83.641866227359 126.56993422222223,83.64191326159938 126.56981333333334,83.64185446879216 126.56972088888891,83.64184271022259 126.56932266666668,83.64183095165036 126.5690311111111,83.64178391733431 126.568896,83.64168984857247 126.56873244444445,83.64160753826404 126.56825600000002,83.6412782957058 126.56768000000001,83.64112543236922 126.5676231111111,83.64109015614976 126.5674808888889,83.64093729225101 126.56717511111113,83.64083146313047 126.56706844444444,83.6407491514409 126.56689777777778,83.64069035729582 126.56676266666668,83.64060804537928 126.56667733333333,83.64059628652322 126.56660622222222,83.64056100993889 126.56632177777779,83.64052573333021 126.56620800000002,83.64041990335829 126.56619377777778,83.64037286774494 126.56625066666668,83.63992602726128 126.56627200000001,83.63958501479263 126.56634311111112,83.63916168580701 126.5664568888889,83.63867955686233 126.56650666666667,83.63830325794348 126.5665848888889,83.63786815886803 126.56662755555556,83.63775056388806 126.56669155555556,83.63743305609196 126.56678400000001,83.63710378666639 126.56682666666667,83.63702146897883 126.56691911111112,83.63686859292194 126.56706844444444,83.63672747615625 126.5670968888889,83.63671571640822 126.56711111111113,83.63673923590162 126.56718222222221,83.63660987855417 126.56765155555556,83.63603364639617 126.5679288888889,83.63564556801983 126.5680568888889,83.63549268785113 126.56807822222223,83.63544564770731 126.56829866666668,83.63512812560504 126.56842666666667,83.63490468294422 126.5686328888889,83.6346106779562 126.56906666666667,83.63382273625572 126.56926577777779,83.63336407803557 126.56967822222222,83.63250555287807 126.56989155555556,83.631999839535 126.56996977777779,83.6318704702023 126.57006933333334,83.63161173055536 126.57009777777779,83.63155292590764 126.57077333333334,83.62965938011575 126.57089422222222,83.62937710641675 126.57095111111111,83.62918892308534 126.57122133333334,83.62842442118236 126.57132088888889,83.62808333203176 126.57131377777779,83.62798923807274 126.57138488888889,83.6277069551571 126.57143466666668,83.62764814602025 126.57166222222223,83.62749524194804 126.572096,83.6271659085478 126.57220266666668,83.62713062270056 126.57246577777778,83.62695419309935 126.57264355555557,83.6269071451029 126.57270755555557,83.62687185907716 126.57305600000001,83.62658956999505 126.57319111111111,83.62647194908435 126.57331911111112,83.62637785216108 126.57331911111112,83.62644842486975" stroke="blue" stroke-width="0.00009162309424163696" fill="none" />
    </g>
  </svg>